<svg xmlns="http://www.w3.org/2000/svg" width="38" height="38" viewBox="0 0 38 38">
  <g id="icon_instagram" transform="translate(-867 -6557)">
    <g id="Retângulo_205" data-name="Retângulo 205" transform="translate(867 6557)" fill="none" stroke="#3e88d7" stroke-width="2">
      <rect width="38" height="38" rx="19" stroke="none"/>
      <rect x="1" y="1" width="36" height="36" rx="18" fill="none"/>
    </g>
    <path id="Icon_awesome-instagram" data-name="Icon awesome-instagram" d="M9.489,6.862a4.866,4.866,0,1,0,4.866,4.866A4.859,4.859,0,0,0,9.489,6.862Zm0,8.03a3.164,3.164,0,1,1,3.164-3.164A3.17,3.17,0,0,1,9.489,14.892Zm6.2-8.229a1.135,1.135,0,1,1-1.135-1.135A1.132,1.132,0,0,1,15.69,6.663Zm3.223,1.152A5.617,5.617,0,0,0,17.38,3.838,5.654,5.654,0,0,0,13.4,2.3c-1.567-.089-6.264-.089-7.831,0A5.646,5.646,0,0,0,1.595,3.833,5.636,5.636,0,0,0,.061,7.81c-.089,1.567-.089,6.264,0,7.831a5.617,5.617,0,0,0,1.533,3.977,5.661,5.661,0,0,0,3.977,1.533c1.567.089,6.264.089,7.831,0a5.617,5.617,0,0,0,3.977-1.533,5.654,5.654,0,0,0,1.533-3.977c.089-1.567.089-6.26,0-7.827Zm-2.024,9.508a3.2,3.2,0,0,1-1.8,1.8c-1.249.5-4.214.381-5.595.381s-4.35.11-5.595-.381a3.2,3.2,0,0,1-1.8-1.8c-.5-1.249-.381-4.214-.381-5.595s-.11-4.35.381-5.595a3.2,3.2,0,0,1,1.8-1.8c1.249-.5,4.214-.381,5.595-.381s4.35-.11,5.595.381a3.2,3.2,0,0,1,1.8,1.8c.5,1.249.381,4.214.381,5.595S17.384,16.078,16.888,17.323Z" transform="translate(876.5 6564.258)" fill="#3e88d7" stroke="#3e88d7" stroke-width="0.5"/>
  </g>
</svg>
