<svg xmlns="http://www.w3.org/2000/svg" width="38" height="38" viewBox="0 0 38 38">
  <g id="icon_youtube" transform="translate(-916 -6557)">
    <g id="Retângulo_206" data-name="Retângulo 206" transform="translate(916 6557)" fill="none" stroke="#3e88d7" stroke-width="2">
      <rect width="38" height="38" rx="19" stroke="none"/>
      <rect x="1" y="1" width="36" height="36" rx="18" fill="none"/>
    </g>
    <g id="Icon_feather-youtube" data-name="Icon feather-youtube" transform="translate(923.898 6568.269)">
      <path id="Caminho_216" data-name="Caminho 216" d="M23.482,8.5A2.857,2.857,0,0,0,21.5,6.434C19.747,6,12.726,6,12.726,6S5.7,6,3.949,6.476a2.857,2.857,0,0,0-1.98,2.067A30.357,30.357,0,0,0,1.5,14.012a30.357,30.357,0,0,0,.469,5.51,2.855,2.855,0,0,0,1.98,1.985c1.755.476,8.777.476,8.777.476s7.021,0,8.777-.476a2.857,2.857,0,0,0,1.98-2.067,30.356,30.356,0,0,0,.469-5.427,30.356,30.356,0,0,0-.469-5.51Z" transform="translate(-1.499 -6)" fill="none" stroke="#3e88d7" stroke-linecap="round" stroke-linejoin="round" stroke-width="2"/>
      <path id="Caminho_217" data-name="Caminho 217" d="M14.625,19.4,20.5,16.062,14.625,12.72Z" transform="translate(-5.671 -8.049)" fill="none" stroke="#3e88d7" stroke-linecap="round" stroke-linejoin="round" stroke-width="2"/>
    </g>
  </g>
</svg>
