<svg id="Grupo_131" data-name="Grupo 131" xmlns="http://www.w3.org/2000/svg" width="20.458" height="20.538" viewBox="0 0 15.908 13.684">
                    <path id="Caminho_15" data-name="Caminho 15" d="M58.845,100.233c.212.064.424.127.635.212h0a5.4,5.4,0,0,1,.614.275,3.023,3.023,0,0,1,.572.318h0c.212.127.381.254.572.381a4.773,4.773,0,0,1,.508.445,4.838,4.838,0,0,1,.466.466c.148.169.275.36.424.53h0c.127.191.254.381.36.572a5.16,5.16,0,0,1,.3.593h0a3.976,3.976,0,0,1,.254.635h0l.191.635c.042.233.085.445.106.657h0a3.847,3.847,0,0,1,.064.678h0c0,.233,0,.445-.021.657,0,.233-.042.445-.064.678h0a5.967,5.967,0,0,1-.148.657c-.064.212-.127.424-.212.635h0a5.329,5.329,0,0,1-.254.614c-.106.191-.212.4-.339.593h0a4.3,4.3,0,0,1-.381.551h0c-.127.169-.275.339-.424.508a5.065,5.065,0,0,1-.487.466,5.155,5.155,0,0,1-.53.424h0c-.191.127-.381.254-.551.36l-.106.064h0l-.508.254c-.212.085-.424.169-.614.233h0a5.943,5.943,0,0,1-.657.191h0c-.212.042-.424.085-.657.127h-.064a5.6,5.6,0,0,1-.614.042h-.657c-.212-.021-.445-.042-.678-.085h0c-.212-.042-.445-.085-.657-.148a1.746,1.746,0,0,1-.4-.127h0a3.088,3.088,0,0,1-.4-.148,2.3,2.3,0,0,1-.4-.169,3.429,3.429,0,0,1-.381-.212,2.093,2.093,0,0,1-.318-.191h0a3.132,3.132,0,0,1-.275-.169h0l-.042-.042a2.4,2.4,0,0,1-.275-.212,1.164,1.164,0,0,1-.191-.148l-3.3.148h-.254l-.339.021h-.233l-.466.021.233-.4.106-.212h0l.148-.254h0l.021-.021.127-.233h0l1.716-2.965a1.093,1.093,0,0,1-.042-.233l-.021-.169h0l-.021-.106v-.064h0c-.021-.127-.021-.254-.042-.36l.021-.021a1.937,1.937,0,0,1-.021-.36h0a3.128,3.128,0,0,1,.021-.445h0a3.184,3.184,0,0,1,.042-.424l.064-.445c.042-.148.064-.3.106-.424.064-.212.127-.424.212-.635h0c.085-.233.169-.424.254-.614a5.386,5.386,0,0,1,.339-.593h0a3.2,3.2,0,0,1,.381-.551h0a3.37,3.37,0,0,1,.424-.508c.169-.169.318-.318.487-.466h0a5.153,5.153,0,0,1,.53-.424,4.252,4.252,0,0,1,.572-.36,5.269,5.269,0,0,1,.593-.318h0a5.271,5.271,0,0,1,.614-.233,3.353,3.353,0,0,1,.657-.191,3.594,3.594,0,0,1,.657-.127c.212-.021.445-.042.678-.042V100c.212,0,.445,0,.657.021.233.021.445.042.678.085h0C58.4,100.127,58.633,100.191,58.845,100.233Zm-6.206,10.358h.381l.106-.021.085.085.042.042.064.042a2.538,2.538,0,0,0,.254.233,2.243,2.243,0,0,0,.254.212h0c.085.064.191.127.3.191a2.148,2.148,0,0,0,.275.191c.106.042.212.106.318.148h0a.989.989,0,0,0,.212.106h.021l.064.042a2.787,2.787,0,0,0,.318.106c.106.042.212.064.339.106a4.683,4.683,0,0,0,.53.106,2.134,2.134,0,0,0,.53.064,4.256,4.256,0,0,0,.53.021h0c.169-.021.339-.021.508-.042h0a3.9,3.9,0,0,0,.53-.106,4.6,4.6,0,0,0,.508-.148,1.943,1.943,0,0,0,.487-.191,5.093,5.093,0,0,0,.487-.233c.148-.106.3-.191.445-.3s.275-.212.424-.339c.127-.106.254-.233.381-.36.106-.127.233-.254.339-.4s.212-.3.3-.445.169-.3.254-.466a3.379,3.379,0,0,0,.212-.487c.064-.148.106-.318.169-.508a4.34,4.34,0,0,0,.106-.508c.021-.169.042-.36.064-.53a2.214,2.214,0,0,0,0-.53,3.749,3.749,0,0,0-.021-.487l-.021-.042c-.021-.169-.042-.339-.085-.53a4.6,4.6,0,0,0-.148-.508c-.064-.169-.127-.318-.191-.487a2.531,2.531,0,0,0-.254-.466,4.274,4.274,0,0,0-.614-.868,5.616,5.616,0,0,0-.72-.7h0l-.042-.021-.445-.318c-.148-.085-.3-.169-.466-.254-.148-.064-.318-.148-.487-.212-.148-.042-.318-.106-.508-.148-.169-.064-.36-.085-.508-.127-.191-.021-.36-.042-.53-.064H56.9a4.126,4.126,0,0,0-.53.042c-.191.021-.36.064-.53.085-.169.042-.339.106-.508.148a3.379,3.379,0,0,0-.487.212,5.089,5.089,0,0,0-.487.233h0c-.148.085-.3.191-.445.3s-.275.212-.424.318c-.127.127-.254.254-.36.381a3.256,3.256,0,0,0-.36.4l-.042.064c-.085.106-.169.233-.254.36-.085.148-.169.318-.254.466-.085.169-.148.339-.212.487-.064.169-.106.339-.169.508-.021.127-.042.233-.064.339s-.042.212-.064.339-.021.233-.042.339v.339h0a1.812,1.812,0,0,0,0,.339c0,.106.021.233.021.339.021.106.042.212.064.339l.064.318.021.064v.021h0v.042l.021.106-.042.085-.021.042h0l-.021.042h0l-.021.021-.191.36-.169.275-.233.424h0l-.635,1.08,1.991-.085.106-.021h.021Z" transform="translate(-48 -100)" fill="#3e88d7"></path>
                    <path id="Caminho_16" data-name="Caminho 16" d="M312.632,224.974a2.243,2.243,0,0,0-1.292,2.69,7.725,7.725,0,0,0,.826,2.245A10.128,10.128,0,0,0,313.8,232.2c1.652,1.695,4.321,1.4,3.431-.085a10.847,10.847,0,0,1-.7-1.271.386.386,0,0,0-.572-.169c-.4.254-.784.53-.974.487-.3-.042-2.627-3.029-1.737-3.5.4-.191,1.1-.424.8-.911l-.974-1.652A.324.324,0,0,0,312.632,224.974Z" transform="translate(-305.706 -222.284)" fill="#3e88d7" fill-rule="evenodd"></path>
                </svg>