<svg xmlns="http://www.w3.org/2000/svg" width="20.458" height="20.538" viewBox="0 0 20.458 20.538">
                    <g id="noun_Phone_4191108" transform="translate(-1.761 -1.705)">
                        <path id="Caminho_17" data-name="Caminho 17" d="M15.894,22.239c-3.018,0-6.57-1.6-9.551-4.582C1.585,12.9.343,6.687,3.515,3.515a5.894,5.894,0,0,1,3.391-1.7l.76-.11,2.8,6.522-2.8,1.4a16.255,16.255,0,0,0,2.919,3.786,16.738,16.738,0,0,0,3.769,2.9l1.315-2.574,6.483.926.038.827a6.418,6.418,0,0,1-1.706,4.995,6.319,6.319,0,0,1-4.59,1.752ZM6.461,3.971a3.928,3.928,0,0,0-1.532.958c-2.3,2.3-1,7.481,2.828,11.314s9.014,5.127,11.314,2.828a4.147,4.147,0,0,0,1.111-2.67l-3.368-.481-.646,1.294a1.978,1.978,0,0,1-1.186,1.01,2.039,2.039,0,0,1-1.582-.157,18.7,18.7,0,0,1-4.228-3.239A18.358,18.358,0,0,1,5.9,10.58a2.009,2.009,0,0,1,.87-2.742l1.107-.553Z" fill="#3e88d7"></path>
                    </g>
                </svg>