<svg id="_13" data-name="13" xmlns="http://www.w3.org/2000/svg" width="16.994" height="11.152" viewBox="0 0 16.994 11.152">
                        <g id="Grupo_144" data-name="Grupo 144">
                            <path id="Caminho_19" data-name="Caminho 19" d="M15.4,0H1.593A1.593,1.593,0,0,0,0,1.593V9.559a1.593,1.593,0,0,0,1.593,1.593H15.4a1.593,1.593,0,0,0,1.593-1.593V1.593A1.593,1.593,0,0,0,15.4,0ZM2.124,1.062H14.87a1.062,1.062,0,0,1,.43.09L8.927,6.813a.69.69,0,0,1-.4.127A.643.643,0,0,1,8.115,6.8l-6.245-5.7a1.338,1.338,0,0,1,.255-.032ZM1.115,9.336a1.014,1.014,0,0,1-.053-.308v-6.9a1.126,1.126,0,0,1,.048-.3l4.2,3.8Zm13.754.754H2.124a1.593,1.593,0,0,1-.223,0L6.086,6.373,7.435,7.594a1.752,1.752,0,0,0,2.167,0l1.36-1.211,4.132,3.707a1.593,1.593,0,0,1-.223,0Zm1.062-1.062a1.014,1.014,0,0,1-.053.308L11.773,5.688,15.932,2a.871.871,0,0,1,0,.122Z" transform="translate(0)" fill="#fff" fill-rule="evenodd"></path>
                        </g>
                    </svg>